<svg width="134" height="116" viewBox="0 0 134 116" fill="none" xmlns="http://www.w3.org/2000/svg">
<path fill-rule="evenodd" clip-rule="evenodd" d="M35.7807 43.0524C32.2199 46.377 29.9629 50.5679 28.7163 55.2097C18.6821 92.5733 65.5242 111.471 102.784 101.058C124.539 94.9788 100.308 81.5854 87.5851 67.1974C71.0184 48.4623 52.764 11.7607 35.7807 43.0524Z" fill="#F9C62E"/>
<path d="M111.542 115.878C111.542 115.878 119.63 114.86 123.635 114.86C128.013 114.86 133.84 115.878 133.84 115.878C130.211 110.855 94.3389 62.4643 78.8234 40.8204L55.6678 8.99201C41.2625 -5.76983 12.2673 -1.31034 11.4724 23.1246C11.1103 34.2561 3.94751 42.768 0.749023 42.101C0.749023 42.101 22.9711 65.9859 35.4243 49.8786C47.8775 33.7713 50.8358 29.3239 59.9442 44.4321L111.542 115.878Z" fill="black"/>
<path d="M59.9442 44.4321C58.532 38.5943 58.8882 26.1918 64.4766 21.1002L133.84 115.878C133.84 115.878 128.013 114.86 123.635 114.86C119.63 114.86 111.542 115.878 111.542 115.878L59.9442 44.4321Z" fill="#9A6E58"/>
</svg>
