<svg width="17" height="16" viewBox="0 0 17 16" fill="none" xmlns="http://www.w3.org/2000/svg">
<path d="M8.50247 15.2904C9.54798 15.2909 10.5302 15.0926 11.4485 14.695C12.3657 14.2979 13.1649 13.7593 13.8455 13.0793C14.5262 12.3991 15.0645 11.5991 15.4605 10.6796C15.8569 9.75911 16.055 8.77668 16.055 7.73285C16.055 6.68902 15.8567 5.70685 15.4597 4.78689C15.0631 3.86799 14.5245 3.0685 13.8439 2.38893C13.1632 1.70938 12.3632 1.17164 11.4443 0.775675C10.5238 0.378699 9.54133 0.180352 8.4975 0.180352C7.45367 0.180352 6.47122 0.378701 5.55072 0.775681C4.63126 1.17221 3.83175 1.7108 3.15273 2.39151C2.47375 3.07217 1.9363 3.87218 1.54034 4.79105C1.14335 5.71046 0.945 6.69292 0.945 7.73785C0.945 8.78279 1.14335 9.76497 1.54034 10.6838C1.93688 11.6016 2.47546 12.4008 3.15612 13.0809C3.83679 13.761 4.63682 14.2993 5.55571 14.6959L5.55575 14.6959C6.47623 15.0923 7.45866 15.2903 8.50247 15.2904ZM8.50247 15.2904L8.5025 15.2354M8.50247 15.2904C8.50248 15.2904 8.50249 15.2904 8.5025 15.2904V15.2354M8.5025 15.2354C9.54083 15.2359 10.5156 15.039 11.4267 14.6445C12.3378 14.2501 13.1311 13.7154 13.8067 13.0404C14.4822 12.3654 15.0167 11.5712 15.41 10.6579C15.8033 9.74452 16 8.76952 16 7.73285C16 6.69619 15.8031 5.72146 15.4092 4.80868C15.0153 3.89591 14.4806 3.1023 13.805 2.42785C13.1294 1.75341 12.3353 1.21952 11.4225 0.826185L5.5775 14.6454C6.49083 15.0387 7.46583 15.2354 8.5025 15.2354ZM14.6861 10.0667L14.6861 10.0667C14.4102 10.7958 14.0119 11.4596 13.4907 12.0583L4.17632 2.74389C4.76494 2.21287 5.42522 1.81204 6.15742 1.5411L6.15744 1.54109C6.90847 1.26283 7.68922 1.12368 8.5 1.12368C10.3468 1.12368 11.9091 1.76394 13.1903 3.04508C14.4714 4.32621 15.1117 5.88852 15.1117 7.73535C15.1117 8.54264 14.9698 9.31963 14.6861 10.0667ZM10.8305 13.9223C10.084 14.2054 9.30729 14.347 8.5 14.347C6.65317 14.347 5.09086 13.7068 3.80972 12.4256C2.52859 11.1445 1.88833 9.58218 1.88833 7.73535C1.88833 6.92819 2.03265 6.1513 2.3213 5.40434C2.60306 4.67521 2.99913 4.01145 3.5097 3.41283L12.8237 12.726C12.2245 13.2467 11.5601 13.6454 10.8305 13.9223Z" fill="black" stroke="black" stroke-width="0.11"/>
</svg>
