<svg width="14" height="18" viewBox="0 0 14 18" fill="none" xmlns="http://www.w3.org/2000/svg">
<path d="M7 9.9C6.73361 9.8968 6.47265 9.97761 6.25226 10.1316C6.03187 10.2855 5.86263 10.5052 5.76731 10.7611C5.67199 11.017 5.65518 11.2968 5.71913 11.5628C5.78308 11.8288 5.92473 12.0683 6.125 12.249V13.5C6.125 13.7387 6.21719 13.9676 6.38128 14.1364C6.54538 14.3052 6.76794 14.4 7 14.4C7.23206 14.4 7.45462 14.3052 7.61872 14.1364C7.78281 13.9676 7.875 13.7387 7.875 13.5V12.249C8.07527 12.0683 8.21692 11.8288 8.28087 11.5628C8.34482 11.2968 8.32801 11.017 8.23269 10.7611C8.13737 10.5052 7.96813 10.2855 7.74774 10.1316C7.52735 9.97761 7.26639 9.8968 7 9.9ZM11.375 6.3V4.5C11.375 3.30653 10.9141 2.16193 10.0936 1.31802C9.27312 0.474106 8.16032 0 7 0C5.83968 0 4.72688 0.474106 3.90641 1.31802C3.08594 2.16193 2.625 3.30653 2.625 4.5V6.3C1.92881 6.3 1.26113 6.58446 0.768845 7.09081C0.276562 7.59716 0 8.28392 0 9V15.3C0 16.0161 0.276562 16.7028 0.768845 17.2092C1.26113 17.7155 1.92881 18 2.625 18H11.375C12.0712 18 12.7389 17.7155 13.2312 17.2092C13.7234 16.7028 14 16.0161 14 15.3V9C14 8.28392 13.7234 7.59716 13.2312 7.09081C12.7389 6.58446 12.0712 6.3 11.375 6.3ZM4.375 4.5C4.375 3.78392 4.65156 3.09716 5.14384 2.59081C5.63613 2.08446 6.30381 1.8 7 1.8C7.69619 1.8 8.36387 2.08446 8.85616 2.59081C9.34844 3.09716 9.625 3.78392 9.625 4.5V6.3H4.375V4.5ZM12.25 15.3C12.25 15.5387 12.1578 15.7676 11.9937 15.9364C11.8296 16.1052 11.6071 16.2 11.375 16.2H2.625C2.39294 16.2 2.17038 16.1052 2.00628 15.9364C1.84219 15.7676 1.75 15.5387 1.75 15.3V9C1.75 8.7613 1.84219 8.53239 2.00628 8.3636C2.17038 8.19482 2.39294 8.1 2.625 8.1H11.375C11.6071 8.1 11.8296 8.19482 11.9937 8.3636C12.1578 8.53239 12.25 8.7613 12.25 9V15.3Z" fill="#F9C62E"/>
</svg>
