<svg width="17" height="8" viewBox="0 0 17 8" fill="none" xmlns="http://www.w3.org/2000/svg">
<path d="M7.34667 7.58314H7.39667V7.53314V6.6998V6.6498H7.34667H4.3975C3.70587 6.6498 3.11495 6.40404 2.62202 5.91112C2.1291 5.41819 1.88333 4.82727 1.88333 4.13564C1.88333 3.44401 2.1291 2.85279 2.62204 2.35931C3.11439 1.86641 3.70531 1.62064 4.3975 1.62064H7.34667H7.39667V1.57064V0.737305V0.687305H7.34667L4.3975 0.687305L4.39747 0.687305C3.44537 0.687868 2.63156 1.02449 1.95884 1.69609C1.28607 2.36773 0.949437 3.18188 0.950001 4.13567C0.950564 5.08941 1.28717 5.90352 1.95881 6.57516C2.63045 7.2468 3.4443 7.58314 4.3975 7.58314H7.34667ZM5.53333 4.5523V4.6023H5.58333H11.4167H11.4667V4.5523V3.71897V3.66897H11.4167H5.58333H5.53333V3.71897V4.5523ZM9.60417 7.53314V7.58312L9.65415 7.58314L12.6025 7.58397H12.6025C13.5557 7.58341 14.3696 7.24679 15.0412 6.57516C15.7128 5.90352 16.0494 5.08941 16.05 4.13567C16.0506 3.18189 15.7142 2.36775 15.042 1.6961C14.3698 1.02448 13.5557 0.688138 12.6025 0.688138H9.65417H9.60417V0.738138V1.57147V1.62147H9.65417H12.6025C13.2941 1.62147 13.8851 1.86724 14.378 2.36016C14.8709 2.85308 15.1167 3.44401 15.1167 4.13564C15.1167 4.82727 14.8709 5.41819 14.378 5.91112L14.378 5.91114C13.8856 6.40403 13.2947 6.6498 12.6025 6.6498H9.65417H9.60417V6.6998V7.53314Z" fill="black" stroke="black" stroke-width="0.1"/>
</svg>
