<svg width="15" height="15" viewBox="0 0 15 15" fill="none" xmlns="http://www.w3.org/2000/svg">
<path fill-rule="evenodd" clip-rule="evenodd" d="M7.51252 8.9276L13.274 14.6891C13.4661 14.8746 13.7233 14.9773 13.9904 14.9749C14.2574 14.9726 14.5129 14.8655 14.7017 14.6767C14.8905 14.4878 14.9976 14.2324 15 13.9654C15.0023 13.6983 14.8996 13.441 14.7141 13.249L8.95263 7.48748L14.7141 1.72601C14.8996 1.53392 15.0023 1.27666 15 1.00962C14.9976 0.742579 14.8905 0.487135 14.7017 0.298303C14.5129 0.10947 14.2574 0.002359 13.9904 3.85008e-05C13.7233 -0.002282 13.4661 0.100374 13.274 0.285896L7.51252 6.04737L1.75104 0.285896C1.55809 0.10496 1.30232 0.00618954 1.03784 0.0104842C0.773359 0.0147789 0.520926 0.121802 0.333953 0.308907C0.14698 0.496013 0.0401356 0.748521 0.036028 1.013C0.0319205 1.27748 0.130872 1.53319 0.311944 1.72601L6.0724 7.48748L0.310926 13.249C0.213652 13.3429 0.136063 13.4553 0.0826862 13.5796C0.0293093 13.7038 0.00121358 13.8375 3.84544e-05 13.9727C-0.00113667 14.1079 0.0246321 14.242 0.0758416 14.3672C0.127051 14.4924 0.202676 14.6061 0.298302 14.7017C0.393929 14.7973 0.507643 14.8729 0.632809 14.9242C0.757975 14.9754 0.892086 15.0011 1.02732 15C1.16255 14.9988 1.29619 14.9707 1.42045 14.9173C1.54471 14.8639 1.65709 14.7863 1.75104 14.6891L7.51252 8.9276Z" fill="#FF0000"/>
</svg>
