<svg width="16" height="15" viewBox="0 0 16 15" fill="none" xmlns="http://www.w3.org/2000/svg">
<path d="M8.03732 2.52309L7.63458 2.68795L8.03732 2.52309C7.80739 1.96136 7.41766 1.48041 6.91663 1.14166C6.41555 0.802854 5.82588 0.621693 5.22222 0.621693C4.41262 0.621693 3.63723 0.947183 3.06635 1.52486C2.49564 2.10237 2.17593 2.88455 2.17593 3.69907C2.17593 4.30658 2.35393 4.90087 2.68801 5.4068C3.02212 5.91279 3.49755 6.30794 4.05477 6.5415C4.61204 6.77508 5.22555 6.83628 5.8175 6.71713C6.40941 6.59799 6.9524 6.30404 7.37809 5.87328C7.80373 5.44258 8.09302 4.89445 8.21018 4.29848C8.32732 3.70254 8.26724 3.08477 8.03732 2.52309ZM2.11876 10.5917L1.80922 10.2858L2.11876 10.5917C2.52723 10.1783 3.08014 9.94709 3.65556 9.94709H6.78889C7.36431 9.94709 7.91721 10.1783 8.32569 10.5917C8.73433 11.0052 8.96482 11.5671 8.96482 12.1541V13.3747H1.47963V12.1541C1.47963 11.5671 1.71011 11.0052 2.11876 10.5917ZM1.47963 14.2451H8.96482V14.3611H1.47963V14.2451ZM0.609259 14.2451V14.3611H0.435185V12.1541C0.435185 11.2868 0.775709 10.4561 1.38023 9.84436C1.98457 9.23282 2.80313 8.89021 3.65556 8.89021H6.78889C7.64131 8.89021 8.45988 9.23282 9.06422 9.84436C9.66874 10.4561 10.0093 11.2868 10.0093 12.1541V14.3611H9.83519V14.2451V13.8099V13.3747V12.1541C9.83519 11.3396 9.51547 10.5574 8.94476 9.97989C8.37388 9.40221 7.59849 9.07672 6.78889 9.07672H3.65556C2.84595 9.07672 2.07057 9.40221 1.49968 9.97989C0.928972 10.5574 0.609259 11.3396 0.609259 12.1541V13.3747V13.8099V14.2451ZM13.1426 6.34127V6.77645H13.5778H15.2315V6.96296H13.5778H13.1426V7.39815V9.07672H12.9685V7.39815V6.96296H12.5333H10.8796V6.77645H12.5333H12.9685V6.34127V4.6627H13.1426V6.34127ZM3.43506 0.98392C3.96452 0.625933 4.58645 0.435185 5.22222 0.435185C6.07465 0.435185 6.89321 0.777792 7.49755 1.38933C8.10207 2.00104 8.44259 2.83179 8.44259 3.69907C8.44259 4.34575 8.25306 4.97749 7.89855 5.51437C7.54407 6.0512 7.04078 6.46882 6.45292 6.71522C5.86511 6.96159 5.2186 7.02597 4.59493 6.90044C3.97123 6.7749 3.39761 6.4649 2.94689 6.00882C2.49612 5.55268 2.18857 4.9709 2.06392 4.33679C1.93927 3.70265 2.00329 3.0454 2.24768 2.44836C2.49205 1.85137 2.90554 1.34195 3.43506 0.98392ZM5.22222 1.49206C5.65143 1.49206 6.07142 1.62083 6.42912 1.86268C6.78689 2.10458 7.06651 2.44894 7.23183 2.85281C7.39716 3.25673 7.4405 3.70147 7.35615 4.1306C7.2718 4.5597 7.06372 4.95316 6.75902 5.26149C6.45437 5.56977 6.06685 5.77911 5.64575 5.86387C5.22469 5.94862 4.78818 5.90517 4.39122 5.73879C3.9942 5.57238 3.65403 5.29022 3.41432 4.9272C3.17457 4.56412 3.0463 4.13672 3.0463 3.69907C3.0463 3.11209 3.27678 2.55017 3.68543 2.13666C4.0939 1.72332 4.6468 1.49206 5.22222 1.49206Z" stroke="black" stroke-width="0.87037"/>
</svg>
