<svg width="13" height="18" viewBox="0 0 13 18" fill="none" xmlns="http://www.w3.org/2000/svg">
<path d="M0.5 17.5V14.7857C0.5 13.7266 0.925337 12.7098 1.68426 11.9592C2.44337 11.2085 3.4741 10.7857 4.55 10.7857H8.45C9.5259 10.7857 10.5566 11.2085 11.3157 11.9592C12.0747 12.7098 12.5 13.7266 12.5 14.7857V17.5H12.2V17.3V16.8V16.3V14.7857C12.2 13.7988 11.8036 12.8535 11.0997 12.1574C10.396 11.4614 9.44279 11.0714 8.45 11.0714H4.55C3.55721 11.0714 2.60398 11.4614 1.90031 12.1574C1.19645 12.8535 0.8 13.7988 0.8 14.7857V16.3V16.8V17.3V17.5H0.5ZM11.2 17.5H1.8V17.3H11.2V17.5ZM11.2 16.3H1.8V14.7857C1.8 14.0676 2.08837 13.3778 2.6035 12.8684C3.11881 12.3587 3.81888 12.0714 4.55 12.0714H8.45C9.18112 12.0714 9.88119 12.3587 10.3965 12.8684C10.9116 13.3778 11.2 14.0676 11.2 14.7857V16.3ZM4.24782 1.17553C4.91399 0.735303 5.69776 0.5 6.5 0.5C7.5759 0.5 8.60663 0.922754 9.36574 1.67352C10.1247 2.4241 10.55 3.44093 10.55 4.5C10.55 5.28989 10.3132 6.0625 9.86888 6.72016C9.42452 7.37788 8.79234 7.89135 8.05167 8.19478C7.31094 8.49822 6.49556 8.5777 5.70885 8.42294C4.92217 8.26818 4.20031 7.88631 3.63426 7.32648C3.06826 6.7667 2.68345 6.05418 2.52761 5.27932C2.37178 4.50449 2.4517 3.7013 2.75753 2.97108C3.06339 2.2408 3.58171 1.61572 4.24782 1.17553ZM8.58127 1.41027C7.96473 1.00285 7.24046 0.785714 6.5 0.785714C5.50721 0.785714 4.55398 1.17571 3.85031 1.87166C3.14645 2.56778 2.75 3.51312 2.75 4.5C2.75 5.23585 2.97066 5.95472 3.38342 6.56567C3.79613 7.17655 4.38215 7.65184 5.06674 7.93229C5.75128 8.21272 6.50421 8.28601 7.23056 8.14312C7.95693 8.00022 8.6249 7.64737 9.14969 7.12834C9.67455 6.60926 10.0326 5.94722 10.1777 5.22566C10.3229 4.50407 10.2483 3.75617 9.96379 3.07679C9.67928 2.39747 9.19786 1.81774 8.58127 1.41027ZM6.5 1.78571C7.04512 1.78571 7.57755 1.94561 8.02994 2.24456C8.48226 2.54348 8.83396 2.96775 9.04142 3.4631C9.24886 3.95839 9.30304 4.50306 9.19737 5.02849L9.68755 5.12708L9.19737 5.02849C9.09169 5.55395 8.83069 6.03738 8.4465 6.41734C8.06226 6.79736 7.57203 7.05678 7.03753 7.16193C6.503 7.26708 5.949 7.21307 5.44582 7.00693C4.94269 6.80082 4.51355 6.45215 4.21203 6.00585C3.91056 5.55963 3.75 5.0356 3.75 4.5C3.75 3.78192 4.03837 3.09212 4.5535 2.58266C5.06881 2.07301 5.76888 1.78571 6.5 1.78571Z" fill="#F9C62E" stroke="black"/>
</svg>
