<svg width="20" height="20" viewBox="0 0 20 20" fill="none" xmlns="http://www.w3.org/2000/svg">
<path d="M13.6376 10.0002C13.6376 10.9647 13.2545 11.8896 12.5725 12.5716C11.8906 13.2535 10.9656 13.6367 10.0012 13.6367C9.03675 13.6367 8.1118 13.2535 7.42984 12.5716C6.74787 11.8896 6.36475 10.9647 6.36475 10.0002C6.36475 9.03577 6.74787 8.11083 7.42984 7.42886C8.1118 6.74689 9.03675 6.36377 10.0012 6.36377C10.9656 6.36377 11.8906 6.74689 12.5725 7.42886C13.2545 8.11083 13.6376 9.03577 13.6376 10.0002ZM12.274 10.0002C12.274 9.39744 12.0345 8.81935 11.6083 8.39312C11.1821 7.96689 10.604 7.72744 10.0012 7.72744C9.39841 7.72744 8.82032 7.96689 8.39409 8.39312C7.96787 8.81935 7.72841 9.39744 7.72841 10.0002C7.72841 10.603 7.96787 11.1811 8.39409 11.6073C8.82032 12.0335 9.39841 12.273 10.0012 12.273C10.604 12.273 11.1821 12.0335 11.6083 11.6073C12.0345 11.1811 12.274 10.603 12.274 10.0002Z" fill="black"/>
<path d="M10.0011 0C10.2435 0 10.485 0.00848504 10.7256 0.0254551C11.4193 0.0754563 11.9484 0.586377 12.1002 1.21094L12.4202 2.52915C12.4375 2.60006 12.502 2.68461 12.6248 2.73006C12.849 2.81128 13.0696 2.90279 13.2866 3.00461C13.4048 3.06007 13.5102 3.04461 13.573 3.00643L14.7321 2.30096C15.2803 1.96641 16.0148 1.98004 16.5412 2.4346C16.9073 2.75218 17.2491 3.09431 17.5667 3.46099C18.0221 3.98645 18.0349 4.72102 17.7003 5.27012L16.9949 6.42833C16.9567 6.49106 16.9421 6.59651 16.9967 6.7147C17.0985 6.93107 17.1903 7.15168 17.2721 7.37653C17.3158 7.49926 17.4012 7.5629 17.4721 7.58108L18.7903 7.90109C19.4149 8.05291 19.9258 8.58201 19.9749 9.27567C20.0095 9.75871 20.0095 10.2417 19.9749 10.7248C19.9258 11.4184 19.4149 11.9475 18.7903 12.0994L17.4721 12.4194C17.4012 12.4366 17.3167 12.5012 17.2712 12.6239C17.19 12.8494 17.0985 13.07 16.9967 13.2858C16.9412 13.4039 16.9567 13.5094 16.9949 13.5721L17.7003 14.7312C18.0349 15.2794 18.0212 16.014 17.5667 16.5404C17.2491 16.9071 16.907 17.2489 16.5403 17.5659C16.0148 18.0213 15.2803 18.034 14.7312 17.6995L13.573 16.994C13.5102 16.9558 13.4048 16.9413 13.2875 16.9958C13.0707 17.0973 12.8496 17.1892 12.6248 17.2713C12.502 17.3149 12.4384 17.4004 12.4202 17.4713L12.1002 18.7895C11.9484 19.4141 11.4193 19.925 10.7256 19.9741C10.2426 20.0086 9.75953 20.0086 9.27649 19.9741C8.58284 19.925 8.05374 19.4141 7.90192 18.7895L7.58191 17.4713C7.56464 17.4004 7.50009 17.3158 7.37736 17.2704C7.15237 17.1898 6.93149 17.0982 6.71553 16.9958C6.59734 16.9404 6.49189 16.9558 6.42916 16.994L5.27004 17.6995C4.72185 18.034 3.98728 18.0204 3.46091 17.5659C3.09423 17.2483 2.75241 16.9061 2.43543 16.5395C1.97996 16.014 1.96724 15.2794 2.30179 14.7303L3.00726 13.5721C3.04544 13.5094 3.05999 13.4039 3.00544 13.2867C2.90397 13.0699 2.81206 12.8488 2.72998 12.6239C2.68634 12.5012 2.60089 12.4376 2.52998 12.4194L1.21177 12.0994C0.587205 11.9475 0.0762846 11.4184 0.0262834 10.7248C-0.00876115 10.2424 -0.00876115 9.75807 0.0262834 9.27567C0.0762846 8.58201 0.587205 8.05291 1.21177 7.90109L2.52998 7.58108C2.60089 7.56381 2.68543 7.49926 2.73089 7.37653C2.8121 7.15107 2.90362 6.93046 3.00544 6.7147C3.0609 6.59651 3.04544 6.49106 3.00726 6.42833L2.30179 5.26921C1.96724 4.72102 1.98087 3.98645 2.43543 3.46008C2.75301 3.0934 3.09514 2.75158 3.46182 2.4346C3.98728 1.97914 4.72185 1.96641 5.27095 2.30096L6.42916 3.00643C6.49189 3.04461 6.59734 3.05916 6.71553 3.00461C6.9319 2.90279 7.15251 2.81097 7.37736 2.72915C7.50009 2.68552 7.56373 2.60006 7.58191 2.52915L7.90192 1.21094C8.05374 0.586377 8.58284 0.0754563 9.27649 0.0254551C9.51589 0.00848504 9.75741 0 10.0011 0ZM9.37377 1.3864C9.32377 1.39003 9.25104 1.43185 9.2274 1.53276L8.90648 2.85097C8.83867 3.11747 8.70585 3.36299 8.51991 3.56559C8.33397 3.76818 8.10072 3.92153 7.84101 4.01191C7.65578 4.07888 7.47376 4.15442 7.29554 4.23828C7.04774 4.35841 6.77399 4.41515 6.49886 4.40341C6.22372 4.39167 5.95581 4.31181 5.71914 4.171L4.56093 3.46553C4.47184 3.41099 4.39184 3.43281 4.35365 3.46553C4.03781 3.74051 3.74134 4.03698 3.46636 4.35283C3.43363 4.39101 3.41181 4.47192 3.46636 4.5601L4.17183 5.71831C4.45729 6.19923 4.48275 6.79106 4.23911 7.29471C4.15525 7.47293 4.07971 7.65495 4.01274 7.84018C3.9224 8.10016 3.76897 8.33367 3.5662 8.51978C3.36343 8.7059 3.11765 8.83879 2.85089 8.90657L1.53268 9.22566C1.43268 9.25021 1.39086 9.32294 1.38722 9.37294C1.35833 9.79063 1.35833 10.2098 1.38722 10.6275C1.39086 10.6775 1.43268 10.7502 1.53359 10.7739L2.8518 11.0948C3.11829 11.1626 3.36382 11.2954 3.56642 11.4814C3.76901 11.6673 3.92236 11.9006 4.01274 12.1603C4.08001 12.3457 4.15547 12.5276 4.23911 12.7057C4.48275 13.2085 4.45729 13.8003 4.17183 14.2812L3.46636 15.4403C3.41181 15.5294 3.43363 15.6094 3.46636 15.6476C3.74091 15.9646 4.03668 16.2604 4.35365 16.5349C4.39184 16.5676 4.47275 16.5895 4.56093 16.5349L5.71914 15.8295C5.95573 15.6885 6.22361 15.6085 6.49874 15.5966C6.77388 15.5847 7.04766 15.6413 7.29554 15.7613C7.47373 15.8461 7.65555 15.9219 7.84101 15.9885C8.10099 16.0789 8.3345 16.2323 8.52061 16.4351C8.70672 16.6379 8.83962 16.8836 8.90739 17.1504L9.22649 18.4686C9.25104 18.5686 9.32377 18.6104 9.37377 18.6141C9.79146 18.643 10.2107 18.643 10.6283 18.6141C10.6783 18.6104 10.7511 18.5686 10.7747 18.4677L11.0956 17.1495C11.1633 16.8828 11.2961 16.6371 11.482 16.4343C11.668 16.2316 11.9013 16.0781 12.1611 15.9876C12.3463 15.921 12.5283 15.8457 12.7066 15.7622C12.9543 15.6422 13.2278 15.5855 13.5028 15.5973C13.7778 15.609 14.0455 15.6888 14.2821 15.8295L15.4412 16.5349C15.5303 16.5895 15.6103 16.5676 15.6485 16.5349C15.9654 16.2604 16.2612 15.9646 16.5358 15.6476C16.5685 15.6094 16.5903 15.5285 16.5358 15.4403L15.8303 14.2812C15.6895 14.0448 15.6096 13.777 15.5977 13.5021C15.5858 13.2271 15.6423 12.9535 15.7621 12.7057C15.8469 12.5276 15.9227 12.3457 15.9894 12.1603C16.0797 11.9003 16.2331 11.6668 16.4359 11.4807C16.6387 11.2946 16.8845 11.1617 17.1512 11.0939L18.4694 10.7748C18.5694 10.7502 18.6113 10.6775 18.6149 10.6275C18.6438 10.2098 18.6438 9.79063 18.6149 9.37294C18.6113 9.32294 18.5694 9.25021 18.4685 9.22657L17.1503 8.90566C16.5812 8.76747 16.1685 8.33746 15.9885 7.84018C15.9218 7.65497 15.8466 7.47295 15.763 7.29471C15.6429 7.04691 15.5861 6.77316 15.5979 6.49803C15.6096 6.22289 15.6895 5.95498 15.8303 5.71831L16.5358 4.5601C16.5903 4.47101 16.5685 4.39101 16.5358 4.35283C16.2608 4.03698 15.9643 3.74051 15.6485 3.46553C15.6103 3.43281 15.5294 3.41099 15.4412 3.46553L14.2821 4.171C14.0455 4.31165 13.7778 4.39142 13.5028 4.40316C13.2278 4.41491 12.9543 4.35825 12.7066 4.23828C12.5284 4.15442 12.3463 4.07888 12.1611 4.01191C11.9015 3.92086 11.6684 3.7672 11.4824 3.56454C11.2964 3.36188 11.1632 3.11648 11.0947 2.85006L10.7756 1.53185C10.7511 1.43185 10.6783 1.39003 10.6283 1.3864C10.2107 1.35751 9.79146 1.35751 9.37377 1.3864Z" fill="black"/>
</svg>
