<svg width="20" height="20" viewBox="0 0 20 20" fill="none" xmlns="http://www.w3.org/2000/svg">
<path d="M2.5 0C1.83696 0 1.20107 0.263392 0.732233 0.732233C0.263392 1.20107 0 1.83696 0 2.5V5.83333C0 6.49637 0.263392 7.13226 0.732233 7.6011C1.20107 8.06994 1.83696 8.33333 2.5 8.33333H5.83333C6.49637 8.33333 7.13226 8.06994 7.6011 7.6011C8.06994 7.13226 8.33333 6.49637 8.33333 5.83333V2.5C8.33333 1.83696 8.06994 1.20107 7.6011 0.732233C7.13226 0.263392 6.49637 0 5.83333 0H2.5ZM1.66667 2.5C1.66667 2.27899 1.75446 2.06702 1.91074 1.91074C2.06702 1.75446 2.27899 1.66667 2.5 1.66667H5.83333C6.05435 1.66667 6.26631 1.75446 6.42259 1.91074C6.57887 2.06702 6.66667 2.27899 6.66667 2.5V5.83333C6.66667 6.05435 6.57887 6.26631 6.42259 6.42259C6.26631 6.57887 6.05435 6.66667 5.83333 6.66667H2.5C2.27899 6.66667 2.06702 6.57887 1.91074 6.42259C1.75446 6.26631 1.66667 6.05435 1.66667 5.83333V2.5ZM14.1667 0C13.5036 0 12.8677 0.263392 12.3989 0.732233C11.9301 1.20107 11.6667 1.83696 11.6667 2.5V5.83333C11.6667 6.49637 11.9301 7.13226 12.3989 7.6011C12.8677 8.06994 13.5036 8.33333 14.1667 8.33333H17.5C18.163 8.33333 18.7989 8.06994 19.2678 7.6011C19.7366 7.13226 20 6.49637 20 5.83333V2.5C20 1.83696 19.7366 1.20107 19.2678 0.732233C18.7989 0.263392 18.163 0 17.5 0H14.1667ZM13.3333 2.5C13.3333 2.27899 13.4211 2.06702 13.5774 1.91074C13.7337 1.75446 13.9457 1.66667 14.1667 1.66667H17.5C17.721 1.66667 17.933 1.75446 18.0893 1.91074C18.2455 2.06702 18.3333 2.27899 18.3333 2.5V5.83333C18.3333 6.05435 18.2455 6.26631 18.0893 6.42259C17.933 6.57887 17.721 6.66667 17.5 6.66667H14.1667C13.9457 6.66667 13.7337 6.57887 13.5774 6.42259C13.4211 6.26631 13.3333 6.05435 13.3333 5.83333V2.5ZM0 14.1667C0 13.5036 0.263392 12.8677 0.732233 12.3989C1.20107 11.9301 1.83696 11.6667 2.5 11.6667H5.83333C6.49637 11.6667 7.13226 11.9301 7.6011 12.3989C8.06994 12.8677 8.33333 13.5036 8.33333 14.1667V17.5C8.33333 18.163 8.06994 18.7989 7.6011 19.2678C7.13226 19.7366 6.49637 20 5.83333 20H2.5C1.83696 20 1.20107 19.7366 0.732233 19.2678C0.263392 18.7989 0 18.163 0 17.5V14.1667ZM2.5 13.3333C2.27899 13.3333 2.06702 13.4211 1.91074 13.5774C1.75446 13.7337 1.66667 13.9457 1.66667 14.1667V17.5C1.66667 17.721 1.75446 17.933 1.91074 18.0893C2.06702 18.2455 2.27899 18.3333 2.5 18.3333H5.83333C6.05435 18.3333 6.26631 18.2455 6.42259 18.0893C6.57887 17.933 6.66667 17.721 6.66667 17.5V14.1667C6.66667 13.9457 6.57887 13.7337 6.42259 13.5774C6.26631 13.4211 6.05435 13.3333 5.83333 13.3333H2.5ZM14.1667 11.6667C13.5036 11.6667 12.8677 11.9301 12.3989 12.3989C11.9301 12.8677 11.6667 13.5036 11.6667 14.1667V17.5C11.6667 18.163 11.9301 18.7989 12.3989 19.2678C12.8677 19.7366 13.5036 20 14.1667 20H17.5C18.163 20 18.7989 19.7366 19.2678 19.2678C19.7366 18.7989 20 18.163 20 17.5V14.1667C20 13.5036 19.7366 12.8677 19.2678 12.3989C18.7989 11.9301 18.163 11.6667 17.5 11.6667H14.1667ZM13.3333 14.1667C13.3333 13.9457 13.4211 13.7337 13.5774 13.5774C13.7337 13.4211 13.9457 13.3333 14.1667 13.3333H17.5C17.721 13.3333 17.933 13.4211 18.0893 13.5774C18.2455 13.7337 18.3333 13.9457 18.3333 14.1667V17.5C18.3333 17.721 18.2455 17.933 18.0893 18.0893C17.933 18.2455 17.721 18.3333 17.5 18.3333H14.1667C13.9457 18.3333 13.7337 18.2455 13.5774 18.0893C13.4211 17.933 13.3333 17.721 13.3333 17.5V14.1667Z" fill="black"/>
<path d="M2.5 0C1.83696 0 1.20107 0.263392 0.732233 0.732233C0.263392 1.20107 0 1.83696 0 2.5V5.83333C0 6.49637 0.263392 7.13226 0.732233 7.6011C1.20107 8.06994 1.83696 8.33333 2.5 8.33333H5.83333C6.49637 8.33333 7.13226 8.06994 7.6011 7.6011C8.06994 7.13226 8.33333 6.49637 8.33333 5.83333V2.5C8.33333 1.83696 8.06994 1.20107 7.6011 0.732233C7.13226 0.263392 6.49637 0 5.83333 0H2.5ZM1.66667 2.5C1.66667 2.27899 1.75446 2.06702 1.91074 1.91074C2.06702 1.75446 2.27899 1.66667 2.5 1.66667H5.83333C6.05435 1.66667 6.26631 1.75446 6.42259 1.91074C6.57887 2.06702 6.66667 2.27899 6.66667 2.5V5.83333C6.66667 6.05435 6.57887 6.26631 6.42259 6.42259C6.26631 6.57887 6.05435 6.66667 5.83333 6.66667H2.5C2.27899 6.66667 2.06702 6.57887 1.91074 6.42259C1.75446 6.26631 1.66667 6.05435 1.66667 5.83333V2.5ZM14.1667 0C13.5036 0 12.8677 0.263392 12.3989 0.732233C11.9301 1.20107 11.6667 1.83696 11.6667 2.5V5.83333C11.6667 6.49637 11.9301 7.13226 12.3989 7.6011C12.8677 8.06994 13.5036 8.33333 14.1667 8.33333H17.5C18.163 8.33333 18.7989 8.06994 19.2678 7.6011C19.7366 7.13226 20 6.49637 20 5.83333V2.5C20 1.83696 19.7366 1.20107 19.2678 0.732233C18.7989 0.263392 18.163 0 17.5 0H14.1667ZM13.3333 2.5C13.3333 2.27899 13.4211 2.06702 13.5774 1.91074C13.7337 1.75446 13.9457 1.66667 14.1667 1.66667H17.5C17.721 1.66667 17.933 1.75446 18.0893 1.91074C18.2455 2.06702 18.3333 2.27899 18.3333 2.5V5.83333C18.3333 6.05435 18.2455 6.26631 18.0893 6.42259C17.933 6.57887 17.721 6.66667 17.5 6.66667H14.1667C13.9457 6.66667 13.7337 6.57887 13.5774 6.42259C13.4211 6.26631 13.3333 6.05435 13.3333 5.83333V2.5ZM0 14.1667C0 13.5036 0.263392 12.8677 0.732233 12.3989C1.20107 11.9301 1.83696 11.6667 2.5 11.6667H5.83333C6.49637 11.6667 7.13226 11.9301 7.6011 12.3989C8.06994 12.8677 8.33333 13.5036 8.33333 14.1667V17.5C8.33333 18.163 8.06994 18.7989 7.6011 19.2678C7.13226 19.7366 6.49637 20 5.83333 20H2.5C1.83696 20 1.20107 19.7366 0.732233 19.2678C0.263392 18.7989 0 18.163 0 17.5V14.1667ZM2.5 13.3333C2.27899 13.3333 2.06702 13.4211 1.91074 13.5774C1.75446 13.7337 1.66667 13.9457 1.66667 14.1667V17.5C1.66667 17.721 1.75446 17.933 1.91074 18.0893C2.06702 18.2455 2.27899 18.3333 2.5 18.3333H5.83333C6.05435 18.3333 6.26631 18.2455 6.42259 18.0893C6.57887 17.933 6.66667 17.721 6.66667 17.5V14.1667C6.66667 13.9457 6.57887 13.7337 6.42259 13.5774C6.26631 13.4211 6.05435 13.3333 5.83333 13.3333H2.5ZM14.1667 11.6667C13.5036 11.6667 12.8677 11.9301 12.3989 12.3989C11.9301 12.8677 11.6667 13.5036 11.6667 14.1667V17.5C11.6667 18.163 11.9301 18.7989 12.3989 19.2678C12.8677 19.7366 13.5036 20 14.1667 20H17.5C18.163 20 18.7989 19.7366 19.2678 19.2678C19.7366 18.7989 20 18.163 20 17.5V14.1667C20 13.5036 19.7366 12.8677 19.2678 12.3989C18.7989 11.9301 18.163 11.6667 17.5 11.6667H14.1667ZM13.3333 14.1667C13.3333 13.9457 13.4211 13.7337 13.5774 13.5774C13.7337 13.4211 13.9457 13.3333 14.1667 13.3333H17.5C17.721 13.3333 17.933 13.4211 18.0893 13.5774C18.2455 13.7337 18.3333 13.9457 18.3333 14.1667V17.5C18.3333 17.721 18.2455 17.933 18.0893 18.0893C17.933 18.2455 17.721 18.3333 17.5 18.3333H14.1667C13.9457 18.3333 13.7337 18.2455 13.5774 18.0893C13.4211 17.933 13.3333 17.721 13.3333 17.5V14.1667Z" stroke="black"/>
</svg>
