<svg width="75" height="60" viewBox="0 0 75 60" fill="none" xmlns="http://www.w3.org/2000/svg">
<path d="M50.7292 18.461V25.4339C50.7292 25.588 50.668 25.7358 50.559 25.8448C50.45 25.9538 50.3022 26.015 50.1481 26.015H43.1752C43.0211 26.015 42.8733 25.9538 42.7643 25.8448C42.6553 25.7358 42.5941 25.588 42.5941 25.4339C42.5941 25.2798 42.6553 25.132 42.7643 25.023C42.8733 24.9141 43.0211 24.8528 43.1752 24.8528H48.7448L45.6288 21.7353C43.3578 19.4646 40.2833 18.1807 37.0719 18.1619C33.8605 18.1431 30.7712 19.3911 28.4738 21.6351C28.4193 21.6885 28.3547 21.7307 28.2839 21.7591C28.213 21.7876 28.1373 21.8019 28.0609 21.801C27.9846 21.8002 27.9091 21.7844 27.8389 21.7544C27.7687 21.7245 27.705 21.681 27.6516 21.6264C27.5982 21.5718 27.556 21.5073 27.5276 21.4364C27.4991 21.3656 27.4849 21.2898 27.4857 21.2135C27.4865 21.1371 27.5023 21.0617 27.5323 20.9915C27.5623 20.9212 27.6058 20.8576 27.6603 20.8042C30.1765 18.3463 33.5603 16.9796 37.0776 17.0002C40.595 17.0209 43.9624 18.4274 46.4496 20.9146L49.567 24.0306V18.461C49.567 18.3068 49.6283 18.159 49.7372 18.0501C49.8462 17.9411 49.994 17.8799 50.1481 17.8799C50.3022 17.8799 50.45 17.9411 50.559 18.0501C50.668 18.159 50.7292 18.3068 50.7292 18.461ZM46.2549 38.53C43.9807 40.7637 40.9181 42.0116 37.7304 42.0034H37.6622C34.4474 41.9936 31.3679 40.7083 29.0999 38.4298L25.9839 35.3123H31.5536C31.7077 35.3123 31.8555 35.2511 31.9644 35.1421C32.0734 35.0331 32.1346 34.8853 32.1346 34.7312C32.1346 34.5771 32.0734 34.4293 31.9644 34.3203C31.8555 34.2114 31.7077 34.1501 31.5536 34.1501H24.5806C24.4265 34.1501 24.2787 34.2114 24.1697 34.3203C24.0607 34.4293 23.9995 34.5771 23.9995 34.7312V41.7042C23.9995 41.8583 24.0607 42.0061 24.1697 42.1151C24.2787 42.224 24.4265 42.2853 24.5806 42.2853C24.7347 42.2853 24.8825 42.224 24.9915 42.1151C25.1005 42.0061 25.1617 41.8583 25.1617 41.7042V36.1345L28.2792 39.2506C30.762 41.7466 34.1343 43.1548 37.6549 43.1656H37.729C41.2207 43.1738 44.5752 41.8071 47.067 39.361C47.1215 39.3076 47.165 39.2439 47.195 39.1737C47.2249 39.1035 47.2408 39.028 47.2416 38.9517C47.2424 38.8753 47.2282 38.7995 47.1997 38.7287C47.1712 38.6578 47.1291 38.5933 47.0757 38.5387C47.0223 38.4842 46.9586 38.4407 46.8884 38.4107C46.8182 38.3807 46.7427 38.3649 46.6664 38.3641C46.59 38.3633 46.5142 38.3775 46.4434 38.406C46.3725 38.4345 46.308 38.4766 46.2534 38.53H46.2549Z" fill="black"/>
<path d="M66.5128 8.48718H51.5385L46.683 1H28.317L23.4615 8.48718H8.48718C6.50146 8.48718 4.59706 9.27601 3.19294 10.6801C1.78883 12.0842 1 13.9886 1 15.9744V51.1641C1 53.1498 1.78883 55.0542 3.19294 56.4583C4.59706 57.8625 6.50146 58.6513 8.48718 58.6513H66.5128C68.4985 58.6513 70.4029 57.8625 71.8071 56.4583C73.2112 55.0542 74 53.1498 74 51.1641V15.9744C74 13.9886 73.2112 12.0842 71.8071 10.6801C70.4029 9.27601 68.4985 8.48718 66.5128 8.48718Z" stroke="black" stroke-width="1.87179" stroke-linecap="round" stroke-linejoin="round"/>
</svg>
