<svg width="17" height="13" viewBox="0 0 17 13" fill="none" xmlns="http://www.w3.org/2000/svg">
<path d="M16 4.75498L12.5385 8.21652M12.5385 4.75498L16 8.21652M3.88462 4.17805H2.15385C1.525 4.17805 1 4.70305 1 5.3319V7.63959C1 8.26844 1.525 8.79344 2.15385 8.79344H3.88462L8.39615 12.0357C9.14038 12.5515 10.2112 12.0081 10.2308 11.1011V1.87036C10.2368 1.66643 10.1859 1.46484 10.084 1.2881C9.98207 1.11137 9.83302 0.966443 9.6535 0.869501C9.47398 0.77256 9.27105 0.727418 9.06736 0.739116C8.86367 0.750813 8.66724 0.81889 8.5 0.935746L3.88462 4.17805Z" stroke="black" stroke-width="1.1" stroke-linecap="round" stroke-linejoin="round"/>
</svg>
