<svg width="20" height="20" viewBox="0 0 20 20" fill="none" xmlns="http://www.w3.org/2000/svg">
<path d="M15.5725 4.49903L14.5725 5.49903M1.07254 18.999C0.405876 18.3324 4.33421 12.7627 12.8575 2.29003C13.1613 1.91695 13.5388 1.61051 13.9663 1.38984C14.3938 1.16918 14.8623 1.03903 15.3423 1.00752C15.8224 0.976004 16.3039 1.04381 16.7566 1.2067C17.2093 1.36959 17.6235 1.62406 17.9735 1.95423C18.3234 2.2844 18.6015 2.68317 18.7905 3.12564C18.9794 3.56812 19.075 4.04479 19.0715 4.52589C19.0679 5.007 18.9652 5.4822 18.7698 5.92183C18.5743 6.36146 18.2903 6.75607 17.9355 7.08103C7.36088 15.693 1.73988 19.6657 1.07254 18.999Z" stroke="white" stroke-width="1.5" stroke-linecap="round" stroke-linejoin="round"/>
</svg>
