<svg width="21" height="22" viewBox="0 0 21 22" fill="none" xmlns="http://www.w3.org/2000/svg">
<path d="M13.4119 16.6491C15.4822 16.4024 17.5164 15.9138 19.4729 15.1933C17.8167 13.3582 16.9014 10.9732 16.9047 8.50118V7.66771C16.9047 5.89932 16.2022 4.20337 14.9518 2.95293C13.7014 1.70249 12.0054 1 10.237 1C8.46862 1 6.77266 1.70249 5.52222 2.95293C4.27178 4.20337 3.56929 5.89932 3.56929 7.66771V8.50118C3.57233 10.9733 2.65664 13.3584 1 15.1933C2.92586 15.9046 4.95618 16.3991 7.06206 16.6491M13.4119 16.6491C11.3027 16.8988 9.17132 16.8988 7.06206 16.6491M13.4119 16.6491C13.5721 17.149 13.6119 17.6797 13.5282 18.1979C13.4444 18.7162 13.2395 19.2073 12.9301 19.6313C12.6206 20.0554 12.2154 20.4004 11.7475 20.6382C11.2795 20.876 10.7619 21 10.237 21C9.71206 21 9.19453 20.876 8.72655 20.6382C8.25858 20.4004 7.85338 20.0554 7.54394 19.6313C7.2345 19.2073 7.02957 18.7162 6.94584 18.1979C6.8621 17.6797 6.90192 17.149 7.06206 16.6491" stroke="black" stroke-width="1.5" stroke-linecap="round" stroke-linejoin="round"/>
</svg>
