<svg width="18" height="14" viewBox="0 0 18 14" fill="none" xmlns="http://www.w3.org/2000/svg">
<path d="M12.0769 7C12.0769 8.84095 10.6993 10.3333 9 10.3333M5.92308 7C5.92308 5.15905 7.30066 3.66667 9 3.66667M7.15385 12.7697C7.74649 12.9173 8.36459 13 9 13C13.4183 13 17 9 17 7C17 6.10899 16.2891 4.82104 15.1101 3.66667M11.1538 1.3134C10.4686 1.1141 9.74622 1 9 1C4.58172 1 1 5 1 7C1 7.87993 1.69331 9.14701 2.84615 10.2902M3.46154 13L14.5385 1" stroke="#F9C62E" stroke-width="1.5" stroke-linecap="round" stroke-linejoin="round"/>
</svg>
