<svg width="14" height="14" viewBox="0 0 14 14" fill="none" xmlns="http://www.w3.org/2000/svg">
<path d="M8.80003 2.80025L11.2001 5.20027M12.5045 3.88745C12.8217 3.57031 12.9999 3.14013 13 2.69156C13.0001 2.24298 12.8219 1.81276 12.5048 1.49553C12.1876 1.1783 11.7574 1.00006 11.3089 1C10.8603 0.999944 10.4301 1.17808 10.1128 1.49523L2.10517 9.50471C1.96586 9.64361 1.86284 9.81463 1.80517 10.0027L1.01256 12.6139C0.997054 12.6658 0.995883 12.7209 1.00917 12.7734C1.02246 12.8259 1.04971 12.8739 1.08804 12.9121C1.12637 12.9504 1.17433 12.9776 1.22686 12.9908C1.27938 13.004 1.3345 13.0027 1.38636 12.9871L3.99819 12.1951C4.18609 12.138 4.3571 12.0356 4.49619 11.8969L12.5045 3.88745Z" stroke="black" stroke-width="1.2" stroke-linecap="round" stroke-linejoin="round"/>
</svg>
