<svg width="15" height="15" viewBox="0 0 15 15" fill="none" xmlns="http://www.w3.org/2000/svg">
<path d="M2.2816 11.3308C2.32388 11.2041 2.33876 11.07 2.32524 10.9372C2.31174 10.8046 2.27024 10.6764 2.20349 10.5611C1.73386 9.74853 1.45745 8.83882 1.39564 7.90232C1.33383 6.96582 1.48827 6.02766 1.84703 5.16041C2.20578 4.29317 2.75923 3.52009 3.46454 2.901C4.16985 2.28191 5.00812 1.8334 5.91448 1.59016C6.82085 1.34692 7.77102 1.31548 8.69148 1.49827C9.61194 1.68105 10.478 2.07317 11.2227 2.64428C11.9674 3.21539 12.5707 3.95018 12.986 4.79181C13.4013 5.63344 13.6174 6.55935 13.6176 7.49788V7.49796C13.6181 8.57281 13.3354 9.62881 12.798 10.5596C12.2606 11.4905 11.4874 12.2633 10.5565 12.8003C9.62546 13.3373 8.56945 13.6195 7.49472 13.6186C6.41998 13.6177 5.36446 13.3336 4.4344 12.795L4.43283 12.7941C4.29081 12.7125 4.13009 12.6691 3.96632 12.6681L3.96632 12.6681L3.9603 12.6681C3.86077 12.6687 3.76193 12.6848 3.66736 12.7159L3.66529 12.7166L1.58878 13.4094M2.2816 11.3308L1.80735 11.1724L2.2817 11.3305L2.2816 11.3308ZM2.2816 11.3308L1.58878 13.4094M1.58878 13.4094L0.919024 13.6329M1.58878 13.4094L1.36553 14.0792C1.38624 14.017 1.38924 13.9504 1.37419 13.8866C1.35914 13.8228 1.32662 13.7645 1.28027 13.7181C1.23392 13.6718 1.17558 13.6392 1.11176 13.6242C1.04793 13.6091 0.981188 13.6121 0.919024 13.6329M0.919024 13.6329L0.918965 13.6329L1.03064 13.9676L1.03065 13.9676L1.03066 13.9677L1.03067 13.9677L1.03068 13.9677L1.07721 14.1072L1.03068 13.9677L1.03068 13.9677L1.03067 13.9676L1.03067 13.9676L0.919024 13.6329ZM6.35873 7.02502L6.82068 7.21635L6.35873 7.02503C6.26524 7.25075 6.24078 7.49913 6.28844 7.73876C6.3361 7.97839 6.45374 8.19851 6.6265 8.37128C6.79926 8.54405 7.01937 8.66171 7.259 8.70938C7.49863 8.75705 7.74701 8.73259 7.97274 8.63908C8.19847 8.54557 8.39139 8.38723 8.52712 8.18408C8.66285 7.98092 8.73529 7.74208 8.73529 7.49776C8.73529 7.17014 8.60516 6.85593 8.3735 6.62425L8.05922 6.9385L8.3735 6.62425C8.14184 6.39257 7.82763 6.2624 7.5 6.2624C7.25567 6.2624 7.01683 6.33486 6.81369 6.47061C6.61055 6.60636 6.45222 6.7993 6.35873 7.02502ZM5.29183 8.18408L4.87608 7.90631L5.29183 8.18407C5.42756 7.98092 5.5 7.74208 5.5 7.49776C5.5 7.17014 5.36986 6.85593 5.13821 6.62425C4.90655 6.39257 4.59234 6.2624 4.26471 6.2624C4.02038 6.2624 3.78154 6.33486 3.5784 6.47061C3.37525 6.60636 3.21693 6.7993 3.12344 7.02503C3.02995 7.25075 3.00549 7.49913 3.05315 7.73876C3.10081 7.97839 3.21845 8.19851 3.39121 8.37128C3.56396 8.54405 3.78407 8.66171 4.02371 8.70938C4.26333 8.75705 4.51172 8.73259 4.73745 8.63908C4.96317 8.54557 5.1561 8.38723 5.29183 8.18408ZM7.33364 7.6642L6.98007 8.01774L7.33364 7.6642C7.30073 7.63129 7.27831 7.58935 7.26923 7.54369C7.26015 7.49802 7.26481 7.45069 7.28262 7.40768C7.30044 7.36467 7.3306 7.32791 7.3693 7.30206C7.40799 7.2762 7.45347 7.2624 7.5 7.2624C7.56239 7.2624 7.62223 7.28719 7.66636 7.33132C7.71049 7.37546 7.73529 7.43533 7.73529 7.49776C7.73529 7.54432 7.72149 7.58983 7.69563 7.62854C7.66977 7.66724 7.63302 7.6974 7.59003 7.71521C7.54704 7.73302 7.49974 7.73768 7.4541 7.7286C7.40847 7.71952 7.36655 7.69711 7.33364 7.6642ZM11.6088 6.62425L11.2552 6.97778L11.6088 6.62425C11.3771 6.39257 11.0629 6.2624 10.7353 6.2624C10.491 6.2624 10.2521 6.33486 10.049 6.47061C9.84584 6.60636 9.68752 6.7993 9.59403 7.02503C9.50053 7.25075 9.47607 7.49913 9.52374 7.73876C9.57139 7.97838 9.68904 8.19851 9.86179 8.37128C10.0346 8.54405 10.2547 8.66171 10.4943 8.70938C10.7339 8.75705 10.9823 8.73259 11.208 8.63908C11.4338 8.54557 11.6267 8.38723 11.7624 8.18408C11.8981 7.98092 11.9706 7.74208 11.9706 7.49776C11.9706 7.17014 11.8405 6.85593 11.6088 6.62425ZM10.5045 7.54369L10.0141 7.64122L10.5045 7.54369C10.4954 7.49802 10.5001 7.45069 10.5179 7.40768C10.5357 7.36467 10.5659 7.32791 10.6046 7.30206C10.6433 7.2762 10.6888 7.2624 10.7353 7.2624C10.7977 7.2624 10.8575 7.28719 10.9017 7.33132C10.9458 7.37546 10.9706 7.43533 10.9706 7.49776C10.9706 7.54432 10.9568 7.58983 10.9309 7.62854C10.9051 7.66724 10.8683 7.6974 10.8253 7.71521C10.7823 7.73302 10.735 7.73768 10.6894 7.7286C10.6438 7.71952 10.6018 7.69711 10.5689 7.6642L10.2389 7.99417L10.5689 7.6642C10.536 7.63129 10.5136 7.58935 10.5045 7.54369ZM4.09834 7.6642L3.7909 7.97162L4.09834 7.6642C4.06543 7.63129 4.04302 7.58935 4.03393 7.54369C4.02485 7.49802 4.02951 7.45069 4.04733 7.40768C4.06514 7.36467 4.09531 7.32791 4.134 7.30206C4.17269 7.2762 4.21818 7.2624 4.26471 7.2624C4.3271 7.2624 4.38694 7.28719 4.43107 7.33132C4.4752 7.37546 4.5 7.43533 4.5 7.49776C4.5 7.54432 4.48619 7.58983 4.46034 7.62854C4.43448 7.66724 4.39772 7.6974 4.35474 7.71521C4.31175 7.73302 4.26445 7.73768 4.21881 7.7286C4.17317 7.71952 4.13125 7.69711 4.09834 7.6642Z" fill="#F9C62E" stroke="black"/>
</svg>
