<svg width="15" height="16" viewBox="0 0 15 16" fill="none" xmlns="http://www.w3.org/2000/svg">
<path d="M5.35707 7.16629C5.94881 7.16629 6.4285 6.6866 6.4285 6.09487C6.4285 5.50313 5.94881 5.02344 5.35707 5.02344C4.76534 5.02344 4.28564 5.50313 4.28564 6.09487C4.28564 6.6866 4.76534 7.16629 5.35707 7.16629Z" fill="black"/>
<path d="M9.64272 7.16629C10.2345 7.16629 10.7141 6.6866 10.7141 6.09487C10.7141 5.50313 10.2345 5.02344 9.64272 5.02344C9.05098 5.02344 8.57129 5.50313 8.57129 6.09487C8.57129 6.6866 9.05098 7.16629 9.64272 7.16629Z" fill="black"/>
<path d="M7.5 15.7373C3.36429 15.7373 0 12.373 0 8.2373C0 4.10159 3.36429 0.737305 7.5 0.737305C11.6357 0.737305 15 4.10159 15 8.2373C15 12.373 11.6357 15.7373 7.5 15.7373ZM7.5 1.80873C3.95357 1.80873 1.07143 4.69088 1.07143 8.2373C1.07143 11.7837 3.95357 14.6659 7.5 14.6659C11.0464 14.6659 13.9286 11.7837 13.9286 8.2373C13.9286 4.69088 11.0464 1.80873 7.5 1.80873Z" fill="black"/>
<path d="M10.5326 11.9877C10.3076 11.9877 10.104 11.8484 10.029 11.6342C9.84469 11.1107 9.50247 10.6573 9.04956 10.3366C8.59665 10.0159 8.05537 9.84369 7.50042 9.84369C6.94546 9.84369 6.40418 10.0159 5.95127 10.3366C5.49836 10.6573 5.15614 11.1107 4.97184 11.6342C4.87542 11.9127 4.5647 12.0627 4.28613 11.9556C4.21941 11.9325 4.158 11.8963 4.10552 11.849C4.05304 11.8018 4.01057 11.7445 3.9806 11.6806C3.95064 11.6167 3.93379 11.5474 3.93106 11.4768C3.92833 11.4063 3.93977 11.3359 3.9647 11.2699C4.4897 9.76987 5.9147 8.77344 7.50042 8.77344C9.08613 8.77344 10.5111 9.78058 11.0361 11.2699C11.0654 11.3507 11.0747 11.4375 11.0634 11.5227C11.052 11.608 11.0203 11.6893 10.9709 11.7597C10.9215 11.8301 10.8559 11.8876 10.7796 11.9272C10.7033 11.9669 10.6186 11.9877 10.5326 11.9877Z" fill="black"/>
</svg>
