<svg width="20" height="20" viewBox="0 0 20 20" fill="none" xmlns="http://www.w3.org/2000/svg">
<path fill-rule="evenodd" clip-rule="evenodd" d="M8.45343 1.53587C7.54515 1.53587 6.64576 1.71477 5.80662 2.06236C4.96748 2.40994 4.20502 2.9194 3.56277 3.56165C2.92051 4.2039 2.41105 4.96637 2.06347 5.80551C1.71589 6.64465 1.53699 7.54403 1.53699 8.45232C1.53699 9.3606 1.71589 10.26 2.06347 11.0991C2.41105 11.9383 2.92051 12.7007 3.56277 13.343C4.20502 13.9852 4.96748 14.4947 5.80662 14.8423C6.64576 15.1899 7.54515 15.3688 8.45343 15.3688C10.2878 15.3688 12.047 14.6401 13.3441 13.343C14.6412 12.0459 15.3699 10.2867 15.3699 8.45232C15.3699 6.61796 14.6412 4.85874 13.3441 3.56165C12.047 2.26457 10.2878 1.53587 8.45343 1.53587ZM5.11124e-08 8.45232C0.000179286 7.09474 0.327317 5.75718 0.953741 4.55277C1.58016 3.34836 2.48745 2.31254 3.59884 1.53292C4.71024 0.753303 5.99305 0.252821 7.33877 0.0738129C8.68449 -0.105195 10.0535 0.0425356 11.3301 0.504509C12.6066 0.966483 13.7531 1.72911 14.6726 2.72788C15.5921 3.72665 16.2575 4.93218 16.6126 6.2425C16.9677 7.55282 17.0019 8.92938 16.7125 10.2557C16.4231 11.5821 15.8184 12.8192 14.9498 13.8625L19.7554 18.6682C19.8309 18.7385 19.8915 18.8234 19.9335 18.9176C19.9755 19.0119 19.9981 19.1137 19.9999 19.2168C20.0017 19.32 19.9827 19.4225 19.9441 19.5182C19.9054 19.6139 19.8479 19.7008 19.7749 19.7738C19.7019 19.8468 19.615 19.9043 19.5193 19.943C19.4236 19.9816 19.3211 20.0006 19.2179 19.9988C19.1148 19.9969 19.013 19.9744 18.9187 19.9324C18.8245 19.8904 18.7396 19.8298 18.6693 19.7543L13.8636 14.9486C12.6291 15.9769 11.1272 16.632 9.53375 16.8374C7.9403 17.0427 6.32134 16.7897 4.86652 16.108C3.4117 15.4262 2.18128 14.3441 1.31938 12.9882C0.457489 11.6323 -0.000176589 10.0589 5.11124e-08 8.45232Z" fill="black"/>
</svg>
