<svg width="116" height="39" viewBox="0 0 116 39" fill="none" xmlns="http://www.w3.org/2000/svg">
<path fill-rule="evenodd" clip-rule="evenodd" d="M110.278 30.2579C110.278 30.2579 112.353 29.9968 113.381 29.9968C114.505 29.9968 116 30.2579 116 30.2579C115.905 30.1264 115.724 29.8793 115.471 29.5355L98.2001 5.93601L98.1992 5.93485L95.9386 2.8275C92.2417 -0.960878 84.8006 0.183574 84.5966 6.45438C84.5532 7.78977 84.1284 8.97826 83.6044 9.8479H8.68628L4.46521 13.5413L0.244141 17.2348V30.9533V37.3888V38.3401H1.19548H8.68628L100.039 38.3877L100.99 38.3882V37.4368V27.1201C103.181 27.2911 105.452 27.117 107.612 26.5665L110.278 30.2579ZM100.039 27.0236C100.354 27.063 100.671 27.0952 100.99 27.1201V10.7992V9.8479H100.039H83.6044C83.3728 10.2322 83.1218 10.5543 82.8759 10.7992H9.04374L5.09167 14.2573L1.19548 17.6665V30.9533V37.3888H8.68628H8.68678L100.039 37.4363V27.0236ZM100.039 27.0236C93.0163 26.1441 87.146 21.6738 89.022 14.6885C89.0314 14.6533 89.0411 14.6182 89.051 14.5833C85.869 15.6498 81.8446 11.3244 81.8446 11.3244C82.1122 11.3801 82.4878 11.1857 82.8759 10.7992H100.039V27.0236Z" fill="#8AA66D"/>
</svg>
