<svg width="825" height="84" viewBox="0 0 825 84" fill="none" xmlns="http://www.w3.org/2000/svg">
<path d="M100.603 14.9079C99.6269 10.1102 102.482 1.00001 113.218 1C122 0.999994 124.521 8.72513 124.439 13.6855C124.358 18.6458 122.168 22.6168 114.752 28.0813V40.5228M114.752 40.5228C109.361 40.034 96.0435 44.277 85.8951 65.1592C75.7467 86.0414 25.0699 73.5349 1 82.7237M114.752 40.5228C119.445 39.7087 132.099 43.4963 145.175 65.1592C158.251 86.8221 205.757 73.8601 227.875 82.7237" stroke="black" stroke-width="1.98"/>
<path d="M398.603 14.9079C397.627 10.1102 400.482 1.00001 411.218 1C420 0.999994 422.521 8.72513 422.439 13.6855C422.358 18.6458 420.168 22.6168 412.752 28.0813V40.5228M412.752 40.5228C407.361 40.034 394.043 44.277 383.895 65.1592C373.747 86.0414 323.07 73.5349 299 82.7237M412.752 40.5228C417.445 39.7087 430.099 43.4963 443.175 65.1592C456.251 86.8221 503.757 73.8601 525.875 82.7237" stroke="black" stroke-width="1.98"/>
<path d="M696.603 14.9079C695.627 10.1102 698.482 1.00001 709.218 1C718 0.999994 720.521 8.72513 720.439 13.6855C720.358 18.6458 718.168 22.6168 710.752 28.0813V40.5228M710.752 40.5228C705.361 40.034 692.043 44.277 681.895 65.1592C671.747 86.0414 621.07 73.5349 597 82.7237M710.752 40.5228C715.445 39.7087 728.099 43.4963 741.175 65.1592C754.251 86.8221 801.757 73.8601 823.875 82.7237" stroke="black" stroke-width="1.98"/>
<path d="M21 24H802" stroke="#939393" stroke-width="0.353207"/>
</svg>
