<svg width="126" height="42" viewBox="0 0 126 42" fill="none" xmlns="http://www.w3.org/2000/svg">
<path fill-rule="evenodd" clip-rule="evenodd" d="M119.693 32.2C119.693 32.2 121.951 31.916 123.069 31.916C124.291 31.916 125.917 32.2 125.917 32.2C125.814 32.0572 125.618 31.7888 125.343 31.4154L106.554 5.74261L106.554 5.74195L104.095 2.36184C100.073 -1.75908 91.9792 -0.514167 91.7573 6.30709C91.71 7.76048 91.2474 9.05389 90.677 10H9.18319L4.5916 14.0176L0 18.0353V32.958V39.9584V40.9933H1.03485H9.18319L108.555 41.045L109.59 41.0455V40.0107V28.7868C111.972 28.9728 114.443 28.7835 116.793 28.1846L119.693 32.2ZM108.555 28.6818C108.898 28.7247 109.243 28.7598 109.59 28.7868V11.0349V10H108.555H90.677C90.4249 10.4182 90.1517 10.7685 89.8839 11.0349H9.57202L5.27305 14.7964L1.03485 18.5049V32.958V39.9584H9.18319H9.18373L108.555 40.0101V28.6818ZM108.555 28.6818C100.916 27.7251 94.5305 22.8623 96.571 15.264C96.5813 15.2257 96.5918 15.1876 96.6026 15.1495C93.1413 16.3097 88.7637 11.6045 88.7637 11.6045C89.0544 11.6652 89.4624 11.4542 89.8839 11.0349H108.555V28.6818Z" fill="#8AA66D"/>
</svg>
